<?xml version="1.0" encoding="UTF-8"?>
<!DOCTYPE svg PUBLIC "-//W3C//DTD SVG 1.1//EN" "http://www.w3.org/Graphics/SVG/1.1/DTD/svg11.dtd">
<svg version="1.1" xmlns="http://www.w3.org/2000/svg" xmlns:xlink="http://www.w3.org/1999/xlink" x="0" y="0" width="559.373" height="522.616" viewBox="0, 0, 559.373, 522.616">
  <g id="Layer_1">
    <path d="M135.556,0 C118.38,-0.016 101.066,0.719 91.394,2.215 C89.469,2.513 85.194,3.154 81.894,3.639 C54.445,7.676 33.426,15.49 25.04,24.772 C21.663,28.51 21.393,29.266 21.399,35.053 C21.406,41.105 22.861,60.569 26.015,96.801 C26.852,106.426 27.924,119.476 28.395,125.801 C29.676,142.993 31.186,161.023 32.331,172.801 C32.892,178.576 33.818,189.376 34.39,196.801 C35.358,209.389 36.12,218.404 38.444,244.801 C38.953,250.576 39.833,263.176 40.401,272.801 C40.969,282.426 41.94,292.236 42.558,294.6 C44.331,301.39 48.31,305.841 57.403,311.215 L65.718,316.131 L62.806,318.461 C61.204,319.743 59.513,320.792 59.048,320.795 C57.38,320.805 40.726,332.162 31.894,339.313 C18.602,350.074 8.135,363.779 2.753,377.467 C0.324,383.646 0.061,385.596 0.005,397.801 C-0.057,411.276 0.42,413.97 4.524,423.301 C6.746,428.352 13.904,439.159 17.237,442.492 C18.973,444.228 20.394,446.076 20.394,446.602 C20.394,447.127 22.981,449.728 26.144,452.379 C29.306,455.031 32.569,457.784 33.394,458.496 C44.828,468.369 74.637,485.204 91.394,491.254 C95.519,492.743 99.794,494.363 100.894,494.854 C106.053,497.155 114.228,500.15 117.394,500.897 C119.319,501.351 125.844,503.128 131.894,504.846 C144.508,508.427 145.522,508.673 162.394,512.242 C183.815,516.774 208.624,520.151 231.894,521.705 C249.277,522.866 308.457,522.934 325.394,521.811 C351.241,520.097 379.891,516.095 400.894,511.266 C404.744,510.381 409.469,509.296 411.394,508.858 C419.953,506.907 425.039,505.573 426.894,504.793 C427.994,504.331 430.019,503.738 431.394,503.475 C450.569,499.812 497.36,479.223 513.821,467.205 C517.516,464.508 521.731,461.527 523.188,460.58 C527.412,457.837 541.342,443.771 545.286,438.266 C550.147,431.481 551.134,429.892 553.022,425.801 C553.911,423.876 554.975,421.611 555.388,420.768 C555.801,419.925 556.456,417.793 556.843,416.03 C557.23,414.266 557.962,412.568 558.47,412.254 C559.665,411.515 559.678,385.316 558.483,383.037 C557.983,382.082 555.751,377.355 553.522,372.533 C549.436,363.692 546.253,358.754 541.167,353.362 C539.642,351.745 538.394,350.066 538.394,349.633 C538.394,348.292 520.336,333.727 511.644,328.057 C503.798,322.939 503.394,322.496 503.394,319.022 C503.394,314.281 500.687,306.982 497.729,303.746 C494.762,300.5 494.794,299.906 498.251,294.043 C507.871,277.728 506.511,262.652 494.259,249.789 C484.105,239.129 460.569,227.388 441.894,223.666 C410.43,217.395 370.037,219.195 340.394,228.19 C337.919,228.941 333.869,230.141 331.394,230.858 C328.919,231.574 326.444,232.47 325.894,232.848 C325.344,233.226 322.194,234.457 318.894,235.584 C315.594,236.711 309.069,239.617 304.394,242.041 C290.971,249.003 285.382,253.172 273.058,265.405 L264.894,273.506 L244.944,274.155 C232.734,274.552 224.626,274.434 224.044,273.852 C223.172,272.98 224.504,257.097 227.401,233.801 C227.914,229.676 228.592,222.701 228.907,218.301 C229.222,213.901 229.907,207.151 230.431,203.301 C230.954,199.451 232.064,189.101 232.897,180.301 C233.731,171.501 234.843,160.251 235.37,155.301 C235.897,150.351 237.034,139.326 237.896,130.801 C238.757,122.276 239.898,112.549 240.429,109.186 C240.96,105.822 241.394,100.51 241.394,97.379 C241.394,94.249 241.841,89.8 242.39,87.494 C242.938,85.188 243.818,77.451 244.345,70.301 C244.872,63.151 245.851,51.901 246.521,45.301 C247.19,38.701 247.419,32.036 247.03,30.49 C245.923,26.082 238.522,19.49 230.343,15.629 C218.577,10.075 205.809,6.768 178.894,2.301 C169.769,0.787 152.732,0.017 135.556,0 z M136.263,13.983 C145.586,14.025 154.872,14.303 163.394,14.836 C193.038,16.689 212.494,20.121 226.073,25.893 C236.751,30.431 233.021,38.625 218.394,42.762 C215.919,43.462 212.544,44.465 210.894,44.992 C207.221,46.166 199.759,47.358 183.394,49.385 C171.289,50.884 117.727,52.076 103.894,51.155 C68.168,48.775 41.499,42.468 36.794,35.287 C35.29,32.991 35.289,32.611 36.788,30.323 C40.048,25.348 50.242,21.755 69.393,18.832 C72.418,18.371 78.043,17.515 81.893,16.932 C95.055,14.939 115.751,13.89 136.263,13.983 z M227.382,53.801 C229.913,53.801 229.949,55.811 227.866,80.301 C226.294,98.793 224.839,108.407 223.491,109.24 C223.069,109.501 219.388,108.423 215.31,106.842 C201.698,101.567 183.961,98.311 159.394,96.578 C140.873,95.272 132.423,95.177 117.894,96.11 C82.577,98.376 66.781,101.234 51.009,108.209 C44.563,111.06 43.775,111.224 42.958,109.903 C41.974,108.31 38.058,54.805 38.866,53.996 C39.191,53.671 41.132,53.911 43.177,54.532 C45.222,55.152 50.044,56.627 53.894,57.811 C77.962,65.208 94.757,67.18 133.894,67.205 C166.219,67.226 180.038,66.167 197.81,62.305 C206.077,60.509 221.5,56.025 223.632,54.799 C224.587,54.25 226.274,53.801 227.382,53.801 z" fill="#000000" id="path47133"/>
    <path d="M316.394,501.778 C336.901,500.645 358.433,498.448 371.394,496.165 C376.069,495.342 382.369,494.281 385.394,493.807 C391.479,492.853 402.188,490.7 412.894,488.28 C416.744,487.409 421.368,486.435 423.169,486.114 C424.97,485.794 426.684,485.142 426.978,484.667 C427.272,484.191 428.364,483.801 429.404,483.801 C434.656,483.801 465.363,472.668 481.894,464.771 C493.162,459.388 514.31,446.366 515.861,443.855 C516.247,443.231 518.242,441.66 520.295,440.364 C525.315,437.195 536.784,421.768 539.25,414.868 C543.934,401.76 544.341,397.203 541.749,386.87 C539.109,376.343 532.37,365.38 523.14,356.597 C514.621,348.49 500.046,338.441 499.011,339.96 C498.883,340.148 497.549,343.263 496.046,346.882 L493.313,353.463 L501.627,361.882 C511.383,371.761 514.842,377.739 516.836,388.161 C518.32,395.918 518.281,396.527 515.231,412.612 C512.331,427.908 497.842,443.323 476.394,453.934 C466.066,459.043 459.798,461.323 443.394,465.938 C403.546,477.149 345.646,475.672 312.894,462.61 C293.428,454.846 280.158,445.072 272.995,433.221 C268.482,425.754 264.444,414.593 264.416,409.506 C264.395,405.722 263.854,404.928 257.34,399.121 C249.803,392.401 245.577,379.327 246.9,366.826 C247.28,363.237 247.903,359.851 248.284,359.301 C248.665,358.751 249.564,356.501 250.282,354.301 C251.806,349.627 256.845,339.458 259.527,335.647 C261.604,332.695 261.967,329.273 260.311,328.25 C259.716,327.882 257.643,325.103 255.706,322.074 C250.881,314.532 250.16,304.746 253.768,295.801 C255.287,292.037 253.435,291.716 236.322,292.779 C216.746,293.995 183.853,297.761 175.046,299.794 C172.763,300.321 169.234,300.763 167.203,300.777 C165.173,300.79 163.234,301.251 162.894,301.801 C162.555,302.351 161.158,302.801 159.791,302.801 C157.054,302.801 145.055,305.487 141.894,306.807 C140.794,307.266 138.319,307.897 136.394,308.209 C134.469,308.521 130.644,309.428 127.894,310.225 C125.144,311.022 119.555,312.625 115.474,313.788 C99.305,318.396 72.067,330.28 56.323,339.596 C46.144,345.62 30.426,359.465 24.302,367.801 C22.888,369.726 20.241,374.451 18.42,378.301 C15.584,384.296 15.039,386.69 14.622,394.973 C14.179,403.766 14.39,405.347 16.95,412.366 C21.882,425.888 31.939,437.534 49.388,449.928 C59.1,456.828 80.782,468.21 92.25,472.429 C110.323,479.079 136.233,486.718 150.894,489.72 C153.644,490.284 157.919,491.179 160.394,491.711 C169.687,493.708 202.32,498.688 213.394,499.799 C242.79,502.749 284.359,503.548 316.394,501.778 z" fill="#CDFFFF" id="path47131"/>
    <path d="M111.394,460.094 C90.992,457.837 63.015,446.243 48.001,433.824 C43.817,430.364 40.394,427.224 40.394,426.847 C40.394,426.47 38.922,424.393 37.122,422.231 C35.322,420.07 33.048,415.996 32.067,413.178 C24.007,390.013 41.957,364.136 77.808,347.236 C108.725,332.662 145.897,327.799 176.894,334.272 C184.339,335.827 199.97,341.682 203.394,344.199 C204.219,344.805 206.003,345.928 207.358,346.693 C225.892,357.165 243.88,385.255 246.882,408.417 C248.725,422.633 241.76,436.935 229.092,444.948 C226.233,446.756 223.669,448.515 223.394,448.856 C223.119,449.198 221.994,449.737 220.894,450.055 C219.794,450.373 216.612,451.502 213.823,452.566 C207.275,455.061 197.305,457.422 185.394,459.297 C178.286,460.417 168.216,460.754 145.394,460.637 C128.619,460.551 113.319,460.307 111.394,460.094 z" fill="#000000" id="path47129"/>
    <path d="M163.436,443.175 C164.242,440.733 164.406,436.652 163.939,430.675 C163.557,425.795 163.497,421.801 163.806,421.801 C165.011,421.801 167.134,428.667 168.248,436.164 C168.89,440.489 169.663,444.426 169.964,444.914 C171.163,446.854 189.014,444.534 204.763,440.392 C211.2,438.699 213.013,437.58 213.914,434.739 C214.413,433.168 214.824,433.053 216.403,434.039 C217.91,434.98 219.019,434.874 221.867,433.516 C225.864,431.61 227.834,427.779 226.992,423.551 C226.691,422.039 226.883,420.801 227.419,420.801 C227.956,420.801 228.394,421.701 228.394,422.801 C228.394,426.432 232.15,425.201 234.374,420.841 C238.196,413.35 236.791,401.313 230.704,389.394 C220.603,369.616 201.617,356.654 173.394,350.269 C163.249,347.974 135.469,347.925 122.894,350.18 C110.681,352.371 104.231,353.841 102.158,354.908 C101.203,355.399 99.612,355.801 98.623,355.801 C93.009,355.801 66.022,368.424 58.432,374.601 C51.663,380.109 48.394,383.982 48.394,386.495 C48.394,387.731 49.826,390.774 51.576,393.257 C53.326,395.74 54.451,398.078 54.076,398.453 C53.701,398.828 51.529,397.637 49.25,395.805 C45.305,392.635 45.041,392.564 43.75,394.329 C42.188,396.465 41.967,403.825 43.323,408.553 C45.441,415.936 56.942,426.118 70.055,432.218 C73.444,433.794 76.907,434.819 77.751,434.495 C78.596,434.171 80.469,431.407 81.913,428.353 C83.358,425.3 84.957,422.801 85.467,422.801 C86.814,422.801 86.578,426.698 84.951,431.301 C82.639,437.845 83.821,438.768 99.756,442.868 C104.191,444.009 105.536,443.288 107.408,438.768 C109.204,434.434 111.394,434.934 111.394,439.679 C111.394,441.812 111.977,444.04 112.689,444.631 C114.168,445.859 121.865,446.32 145.567,446.603 L162.239,446.801 z" fill="#D0972A" id="path47127"/>
    <g id="path47125">
      <path d="M186.644,412.31 C184.081,411.196 183.398,410.307 183.41,408.1 C183.441,402.302 187.549,399.801 197.04,399.801 C203.328,399.801 204.631,400.13 207.318,402.39 C210.516,405.082 211.408,409.033 209.144,410.486 C204.321,413.582 191.889,414.59 186.644,412.31 z" fill="#452801"/>
      <path d="M186.644,412.31 C184.081,411.196 183.398,410.307 183.41,408.1 C183.441,402.302 187.549,399.801 197.04,399.801 C203.328,399.801 204.631,400.13 207.318,402.39 C210.516,405.082 211.408,409.033 209.144,410.486 C204.321,413.582 191.889,414.59 186.644,412.31 z" fill-opacity="0" stroke="#000000" stroke-width="1"/>
    </g>
    <g id="path47123">
      <path d="M121.546,406.106 C119.639,405.166 117.494,402.98 116.563,401.028 C114.95,397.647 114.966,397.567 117.655,395.253 C122.446,391.132 129.762,389.478 138.894,390.45 L146.894,391.301 L147.192,394.829 C147.355,396.769 146.904,400.14 146.19,402.319 C144.688,406.904 143.073,407.508 131.894,407.66 C127.241,407.724 123.772,407.203 121.546,406.106 z" fill="#452801"/>
      <path d="M121.546,406.106 C119.639,405.166 117.494,402.98 116.563,401.028 C114.95,397.647 114.966,397.567 117.655,395.253 C122.446,391.132 129.762,389.478 138.894,390.45 L146.894,391.301 L147.192,394.829 C147.355,396.769 146.904,400.14 146.19,402.319 C144.688,406.904 143.073,407.508 131.894,407.66 C127.241,407.724 123.772,407.203 121.546,406.106 z" fill-opacity="0" stroke="#000000" stroke-width="1"/>
    </g>
    <g id="path47121">
      <path d="M76.178,389.051 C71.837,384.075 71.03,376.643 74.433,372.99 C76.752,370.501 77.814,370.354 82.274,371.909 C85.834,373.15 89.394,379.198 89.394,384.004 C89.394,389.247 79.608,392.984 76.178,389.051 z" fill="#452801"/>
      <path d="M76.178,389.051 C71.837,384.075 71.03,376.643 74.433,372.99 C76.752,370.501 77.814,370.354 82.274,371.909 C85.834,373.15 89.394,379.198 89.394,384.004 C89.394,389.247 79.608,392.984 76.178,389.051 z" fill-opacity="0" stroke="#000000" stroke-width="1"/>
    </g>
    <g id="path47119">
      <path d="M180.515,384.799 C175.311,383.57 173.825,379.487 176.955,375.018 C180.472,369.997 189.741,368.248 196.927,371.25 C199.919,372.5 200.394,373.165 200.394,376.095 C200.394,380.518 198.319,382.265 190.75,384.217 C187.371,385.088 184.446,385.755 184.25,385.699 C184.055,385.643 182.374,385.238 180.515,384.799 z" fill="#452801"/>
      <path d="M180.515,384.799 C175.311,383.57 173.825,379.487 176.955,375.018 C180.472,369.997 189.741,368.248 196.927,371.25 C199.919,372.5 200.394,373.165 200.394,376.095 C200.394,380.518 198.319,382.265 190.75,384.217 C187.371,385.088 184.446,385.755 184.25,385.699 C184.055,385.643 182.374,385.238 180.515,384.799 z" fill-opacity="0" stroke="#000000" stroke-width="1"/>
    </g>
    <g id="path47117">
      <path d="M132.38,369.933 C127.485,367.308 126.564,365.407 128.577,362.088 C130.589,358.774 134.333,357.38 138.916,358.239 C145.349,359.446 147.463,364.574 143.144,368.496 C139.778,371.552 136.272,372.021 132.38,369.933 z" fill="#452801"/>
      <path d="M132.38,369.933 C127.485,367.308 126.564,365.407 128.577,362.088 C130.589,358.774 134.333,357.38 138.916,358.239 C145.349,359.446 147.463,364.574 143.144,368.496 C139.778,371.552 136.272,372.021 132.38,369.933 z" fill-opacity="0" stroke="#000000" stroke-width="1"/>
    </g>
    <path d="M400.894,455.796 C421.309,454.517 440.161,450.97 445.637,447.38 C447.145,446.391 449.084,445.852 449.945,446.182 C453.265,447.456 472.353,439.439 482.563,432.482 C485.131,430.733 488.636,427.164 490.352,424.551 C492.069,421.939 493.927,419.801 494.483,419.801 C495.819,419.801 499.345,411.946 499.372,408.906 C499.395,406.494 491.686,398.111 482.894,390.986 C479.712,388.407 479.19,387.56 480.342,386.842 C483.606,384.806 492.999,391.226 497.593,398.633 C499.47,401.661 499.802,401.822 501.229,400.395 C502.605,399.019 502.641,398.056 501.517,392.617 C500.812,389.203 499.339,384.653 498.244,382.506 C495.756,377.629 489.235,370.484 484.733,367.702 L481.314,365.589 L477.604,368.159 C475.564,369.572 471.065,372.77 467.607,375.265 C464.149,377.76 461.08,379.801 460.787,379.801 C460.494,379.801 458.366,381.039 456.058,382.551 C449.561,386.809 448.535,387.379 438.394,392.373 C433.169,394.946 427.769,397.607 426.394,398.285 C425.019,398.964 420.519,400.744 416.394,402.241 C412.269,403.737 407.994,405.319 406.894,405.757 C402.368,407.556 393.54,409.801 390.991,409.801 C386.666,409.801 384.539,411.506 383.799,415.563 C383.424,417.619 382.224,420.574 381.133,422.129 C379.226,424.845 378.889,424.938 372.521,424.495 C363.7,423.882 360.829,423.051 354.894,419.388 C350.072,416.411 349.423,416.289 336.607,415.952 C320.331,415.525 318.816,415.856 316.985,420.238 C314.287,426.696 307.665,427.734 301.833,422.613 C299.836,420.86 297.815,418.407 297.342,417.164 C296.486,414.911 293.693,413.81 285.131,412.348 C282.183,411.845 281.234,412.057 280.746,413.329 C279.55,416.443 284.615,424.757 291.956,431.73 C299.244,438.653 305.846,442.579 317.281,446.794 C323.555,449.106 323.694,449.113 325.13,447.224 C325.934,446.167 327.026,444.109 327.556,442.652 C328.086,441.194 329.433,439.763 330.548,439.471 C332.219,439.035 332.488,439.325 332.075,441.121 C329.77,451.142 329.603,450.924 341.394,453.317 C358.146,456.717 374.996,457.419 400.894,455.796 z" fill="#D0972A" id="path47115"/>
    <g id="path47111">
      <path d="M408.144,432.25 C407.732,431.82 407.394,429.08 407.394,426.16 C407.394,421.28 407.635,420.728 410.379,419.309 C414.261,417.302 423.101,417.079 424.964,418.943 C426.672,420.65 427.821,428.801 426.606,430.588 C425.615,432.046 409.353,433.509 408.144,432.25 z" fill="#452801"/>
      <path d="M408.144,432.25 C407.732,431.82 407.394,429.08 407.394,426.16 C407.394,421.28 407.635,420.728 410.379,419.309 C414.261,417.302 423.101,417.079 424.964,418.943 C426.672,420.65 427.821,428.801 426.606,430.588 C425.615,432.046 409.353,433.509 408.144,432.25 z" fill-opacity="0" stroke="#000000" stroke-width="1"/>
    </g>
    <g id="path47109">
      <path d="M446.485,424.953 C445.279,424.126 445.275,423.503 446.459,420.644 C450.519,410.834 456.873,405.918 463.812,407.22 C468.765,408.149 472.635,413.321 472.209,418.442 C471.915,421.98 471.603,422.31 467.394,423.544 C461.444,425.287 448.267,426.175 446.485,424.953 z" fill="#452801"/>
      <path d="M446.485,424.953 C445.279,424.126 445.275,423.503 446.459,420.644 C450.519,410.834 456.873,405.918 463.812,407.22 C468.765,408.149 472.635,413.321 472.209,418.442 C471.915,421.98 471.603,422.31 467.394,423.544 C461.444,425.287 448.267,426.175 446.485,424.953 z" fill-opacity="0" stroke="#000000" stroke-width="1"/>
    </g>
    <path d="M371.568,398.726 C382.969,396.423 384.391,395.848 384.458,393.511 C384.52,391.329 384.533,391.331 385.467,393.663 C386.336,395.834 386.797,395.97 391.154,395.341 C399.356,394.156 406.351,391.752 407.423,389.748 C407.985,388.698 408.837,384.712 409.317,380.891 C409.797,377.069 410.538,373.378 410.965,372.688 C412.208,370.676 413.269,374.717 412.701,379.301 C412.284,382.662 412.614,383.684 414.769,385.697 L417.333,388.092 L423.614,385.81 C445.28,377.938 471.377,362.968 480.29,353.299 C484.887,348.312 489.369,339.744 489.385,335.913 C489.392,334.267 487.485,331.753 483.244,327.816 C479.861,324.675 477.498,321.861 477.994,321.561 C478.489,321.261 481.116,322.092 483.831,323.409 C486.546,324.725 489.358,325.801 490.081,325.801 C492.122,325.801 491.681,318.784 489.405,315.051 C486.777,310.741 484.04,310.858 477.653,315.551 C470.821,320.573 467.822,322.26 454.894,328.353 C426.543,341.716 409.199,344.378 357.745,343.264 C339.512,342.869 322.082,342.86 319.01,343.244 C313.646,343.914 313.353,344.106 311.565,348.121 C307.599,357.029 299.585,361.34 291.78,358.763 C287.637,357.396 285.708,352.068 287.498,346.935 C288.103,345.198 288.382,343.212 288.117,342.522 C287.853,341.832 284.895,340.659 281.545,339.916 C278.194,339.173 274.652,337.957 273.674,337.215 C268.927,333.614 264.921,336.953 259.414,349.098 C256.786,354.893 256.396,356.896 256.404,364.529 C256.412,372.405 256.715,373.827 259.363,378.445 C262.708,384.276 267.74,388.799 274.364,391.927 C287.159,397.97 299.454,399.513 336.068,399.671 C354.186,399.749 368.37,399.371 371.568,398.726 z" fill="#D0972A" id="path47107"/>
    <g id="path47105">
      <path d="M353.292,371.518 C350.235,369.463 349.864,368.7 349.589,363.911 C349.225,357.589 351.834,352.916 357.14,350.386 C366.177,346.076 374.929,350.741 376.055,360.468 C377.02,368.798 376.18,370.491 370.203,372.266 C362.761,374.476 357.336,374.236 353.292,371.518 z" fill="#452801"/>
      <path d="M353.292,371.518 C350.235,369.463 349.864,368.7 349.589,363.911 C349.225,357.589 351.834,352.916 357.14,350.386 C366.177,346.076 374.929,350.741 376.055,360.468 C377.02,368.798 376.18,370.491 370.203,372.266 C362.761,374.476 357.336,374.236 353.292,371.518 z" fill-opacity="0" stroke="#000000" stroke-width="1"/>
    </g>
    <g id="path47103">
      <path d="M440.894,354.606 C439.794,353.983 438.564,352.984 438.16,352.387 C437.086,350.8 437.234,343.97 438.389,341.812 C440.885,337.148 452.354,334.504 458.66,337.139 C462.005,338.536 462.394,339.08 462.394,342.346 C462.394,344.394 461.515,347.228 460.387,348.811 C456.459,354.329 445.927,357.46 440.894,354.606 z" fill="#452801"/>
      <path d="M440.894,354.606 C439.794,353.983 438.564,352.984 438.16,352.387 C437.086,350.8 437.234,343.97 438.389,341.812 C440.885,337.148 452.354,334.504 458.66,337.139 C462.005,338.536 462.394,339.08 462.394,342.346 C462.394,344.394 461.515,347.228 460.387,348.811 C456.459,354.329 445.927,357.46 440.894,354.606 z" fill-opacity="0" stroke="#000000" stroke-width="1"/>
    </g>
    <path d="M315.566,329.146 C317.267,327.606 317.522,327.606 319.223,329.146 C320.56,330.356 322.943,330.801 328.077,330.801 C335.652,330.801 337.26,329.94 342.081,323.301 C344.807,319.549 347.112,320.864 344.988,324.959 C342.351,330.04 343.121,330.206 371.373,330.639 C402.606,331.118 415.755,329.824 432.742,324.6 C436.506,323.443 436.575,323.334 435.974,319.572 C435.636,317.457 434.75,313.96 434.006,311.801 C433.262,309.642 432.88,307.649 433.157,307.372 C434.114,306.415 437.229,311.419 438.949,316.679 C440.258,320.68 441.067,321.836 442.286,321.447 C453.522,317.861 470.312,309.154 478.153,302.846 C481.311,300.306 485.649,295.68 487.794,292.567 C491.685,286.918 491.69,286.901 489.909,284.104 C487.106,279.701 481.401,275.024 475.195,272.041 C472.06,270.534 469.472,268.908 469.445,268.427 C469.417,267.947 471.846,267.757 474.842,268.005 C480.967,268.513 486.591,271.79 489.894,276.777 C492.449,280.632 493.81,280.158 494.217,275.269 C494.914,266.895 491.839,261.337 482.195,253.542 C467.764,241.876 439.077,233.127 409.394,231.339 C398.312,230.672 378.912,231.991 365.394,234.332 C360.169,235.237 353.869,236.331 351.394,236.763 C336.797,239.313 317.52,245.703 305.143,252.096 C295.808,256.917 294.368,258.33 296.899,260.181 C299.793,262.297 297.831,263.823 293.056,263.168 C289.414,262.669 288.309,262.985 285.349,265.371 C275.045,273.678 267.185,283.345 263.655,292.053 C262.694,294.422 261.924,298.983 261.914,302.365 C261.896,307.859 262.251,308.895 265.698,313.416 C272.405,322.211 283.603,327.794 298.364,329.703 C309.175,331.102 313.562,330.96 315.566,329.146 z" fill="#D0972A" id="path47101"/>
    <g id="path47099">
      <path d="M293.154,311.147 C290.18,309.913 289.171,308.788 288.235,305.663 C287.247,302.367 287.326,301.168 288.72,298.244 C290.608,294.286 293.626,292.801 299.781,292.801 C306.685,292.801 318.394,297.018 318.394,299.504 C318.394,301.951 313.446,310.703 311.462,311.765 C308.591,313.302 297.441,312.925 293.154,311.147 z" fill="#452801"/>
      <path d="M293.154,311.147 C290.18,309.913 289.171,308.788 288.235,305.663 C287.247,302.367 287.326,301.168 288.72,298.244 C290.608,294.286 293.626,292.801 299.781,292.801 C306.685,292.801 318.394,297.018 318.394,299.504 C318.394,301.951 313.446,310.703 311.462,311.765 C308.591,313.302 297.441,312.925 293.154,311.147 z" fill-opacity="0" stroke="#000000" stroke-width="1"/>
    </g>
    <g id="path47097">
      <path d="M379.444,298.354 L377.144,295.906 L379.109,292.104 C381.797,286.905 384.596,285.614 391.894,286.208 C402.794,287.095 405.856,288.057 406.234,290.714 C407.16,297.23 401.295,300.801 389.668,300.801 C382.553,300.801 381.508,300.551 379.444,298.354 z" fill="#452801"/>
      <path d="M379.444,298.354 L377.144,295.906 L379.109,292.104 C381.797,286.905 384.596,285.614 391.894,286.208 C402.794,287.095 405.856,288.057 406.234,290.714 C407.16,297.23 401.295,300.801 389.668,300.801 C382.553,300.801 381.508,300.551 379.444,298.354 z" fill-opacity="0" stroke="#000000" stroke-width="1"/>
    </g>
    <g id="path47095">
      <path d="M449.417,296.05 C445.091,293.875 443.507,289.438 445.534,285.169 C447.392,281.253 454.5,277.801 460.706,277.801 C464.932,277.801 466.055,278.262 468.994,281.201 C470.864,283.071 472.394,285.381 472.394,286.333 C472.394,289.19 466.129,294.205 460.24,296.061 C453.476,298.193 453.68,298.193 449.417,296.05 z" fill="#452801"/>
      <path d="M449.417,296.05 C445.091,293.875 443.507,289.438 445.534,285.169 C447.392,281.253 454.5,277.801 460.706,277.801 C464.932,277.801 466.055,278.262 468.994,281.201 C470.864,283.071 472.394,285.381 472.394,286.333 C472.394,289.19 466.129,294.205 460.24,296.061 C453.476,298.193 453.68,298.193 449.417,296.05 z" fill-opacity="0" stroke="#000000" stroke-width="1"/>
    </g>
    <g id="path47093">
      <path d="M327.984,268.491 C326.898,267.696 325.989,265.386 325.678,262.629 C325.198,258.37 325.381,257.918 328.53,255.59 C332.716,252.495 339.56,249.796 343.165,249.818 C346.26,249.836 353.201,253.496 354.696,255.897 C356.642,259.023 354.607,262.514 348.676,266.224 C343.62,269.387 342.193,269.801 336.367,269.801 C332.51,269.801 329.033,269.258 327.984,268.491 z" fill="#452801"/>
      <path d="M327.984,268.491 C326.898,267.696 325.989,265.386 325.678,262.629 C325.198,258.37 325.381,257.918 328.53,255.59 C332.716,252.495 339.56,249.796 343.165,249.818 C346.26,249.836 353.201,253.496 354.696,255.897 C356.642,259.023 354.607,262.514 348.676,266.224 C343.62,269.387 342.193,269.801 336.367,269.801 C332.51,269.801 329.033,269.258 327.984,268.491 z" fill-opacity="0" stroke="#000000" stroke-width="1"/>
    </g>
    <g id="path47091">
      <path d="M425.144,253.772 C422.437,252.116 423.059,249.303 426.873,245.954 C430.809,242.499 435.425,241.319 442.081,242.069 C448.562,242.8 450.452,247.038 446.483,251.941 C444.773,254.053 443.644,254.33 435.733,254.572 C430.703,254.726 426.14,254.382 425.144,253.772 z" fill="#452801"/>
      <path d="M425.144,253.772 C422.437,252.116 423.059,249.303 426.873,245.954 C430.809,242.499 435.425,241.319 442.081,242.069 C448.562,242.8 450.452,247.038 446.483,251.941 C444.773,254.053 443.644,254.33 435.733,254.572 C430.703,254.726 426.14,254.382 425.144,253.772 z" fill-opacity="0" stroke="#000000" stroke-width="1"/>
    </g>
    <path d="M107.674,299.239 C122.41,294.186 137.178,289.805 146.394,287.753 C166.699,283.232 189.192,279.168 200.708,277.939 C204.456,277.539 207.874,276.644 208.303,275.95 C208.732,275.255 209.617,269.425 210.27,262.994 C210.922,256.563 211.892,247.026 212.426,241.801 C212.959,236.576 214.065,224.651 214.884,215.301 C215.704,205.951 216.825,193.801 217.376,188.301 C218.412,177.958 221.274,144.964 221.67,138.801 C221.938,134.627 221.028,134.531 211.894,137.775 C197.482,142.894 160.499,147.799 136.394,147.789 C105.156,147.776 73.681,143.454 53.894,136.46 C48.603,134.59 46.617,134.269 45.759,135.144 C44.636,136.288 44.895,141.253 48.35,184.801 C51.278,221.714 52.502,237.751 53.424,251.301 C55.264,278.353 56.005,283.256 58.917,287.655 C61.533,291.61 67.128,296.017 72.894,298.667 C77.484,300.776 88.736,304.757 90.174,304.78 C90.878,304.792 98.753,302.298 107.674,299.239 z" fill="#FFFFFF" id="path47089"/>
    <path d="M178.894,131.401 C199.426,128.547 210.793,124.543 210.187,120.378 C209.477,115.501 197.069,111.646 172.394,108.635 C156.736,106.724 107.351,107.063 90.894,109.194 C78.597,110.787 75.446,111.403 65.894,114.081 C57.775,116.358 54.852,121.1 59.644,124.22 C65.141,127.798 84.095,131.535 103.394,132.845 C119.768,133.956 167.015,133.053 178.894,131.401 z" fill="#FFFFFF" id="path47087"/>
    <g id="path47213">
      <path d="M287.272,342.136 C296.645,344.685 306.343,344.274 315.227,344.066 C307.618,362.586 278.44,368.913 287.272,342.136 z" fill="#452801"/>
      <path d="M287.272,342.136 C296.645,344.685 306.343,344.274 315.227,344.066 C307.618,362.586 278.44,368.913 287.272,342.136 z" fill-opacity="0" stroke="#000000" stroke-width="1.002" stroke-linecap="round" stroke-linejoin="round"/>
    </g>
    <g id="path47215">
      <path d="M322.348,416.586 C312.975,419.134 301.581,416.443 294.51,415.182 C298.175,428.388 319.148,430.049 322.348,416.586 z" fill="#452801"/>
      <path d="M322.348,416.586 C312.975,419.134 301.581,416.443 294.51,415.182 C298.175,428.388 319.148,430.049 322.348,416.586 z" fill-opacity="0" stroke="#000000" stroke-width="1.002" stroke-linecap="round" stroke-linejoin="round"/>
    </g>
    <g id="path47217">
      <path d="M385.803,411.731 C376.43,414.28 355.62,418.256 348.549,416.995 C355.887,431.256 392.894,428.151 385.803,411.731 z" fill="#452801"/>
      <path d="M385.803,411.731 C376.43,414.28 355.62,418.256 348.549,416.995 C355.887,431.256 392.894,428.151 385.803,411.731 z" fill-opacity="0" stroke="#000000" stroke-width="1.002" stroke-linecap="round" stroke-linejoin="round"/>
    </g>
  </g>
</svg>
